<?xml version="1.0" encoding="UTF-8" standalone="no"?>
<!-- Created with Inkscape (http://www.inkscape.org/) -->

<svg
   width="623.36731"
   height="97.228348"
   viewBox="0 0 164.9326 25.725001"
   version="1.1"
   id="svg1"
   xml:space="preserve"
   inkscape:version="1.3.2 (091e20e, 2023-11-25)"
   sodipodi:docname="bootstrap.svg"
   xmlns:inkscape="http://www.inkscape.org/namespaces/inkscape"
   xmlns:sodipodi="http://sodipodi.sourceforge.net/DTD/sodipodi-0.dtd"
   xmlns="http://www.w3.org/2000/svg"
   xmlns:svg="http://www.w3.org/2000/svg"><sodipodi:namedview
     id="namedview1"
     pagecolor="#ffffff"
     bordercolor="#000000"
     borderopacity="0.25"
     inkscape:showpageshadow="2"
     inkscape:pageopacity="0.0"
     inkscape:pagecheckerboard="0"
     inkscape:deskcolor="#d1d1d1"
     inkscape:document-units="mm"
     inkscape:zoom="0.44384757"
     inkscape:cx="366.11669"
     inkscape:cy="701.81752"
     inkscape:window-width="1368"
     inkscape:window-height="912"
     inkscape:window-x="193"
     inkscape:window-y="44"
     inkscape:window-maximized="0"
     inkscape:current-layer="layer1" /><defs
     id="defs1"><clipPath
       id="prefix__clip0"><path
         fill="#ffffff"
         d="M 0,0 H 54 V 32.4 H 0 Z"
         id="path2-0" /></clipPath></defs><g
     inkscape:label="Layer 1"
     inkscape:groupmode="layer"
     id="layer1"
     transform="translate(-5.2933175,-3.6914203)"><g
       id="g1"
       transform="matrix(0.14233847,0,0,0.14233847,30.073916,-10.30989)"><path
         fill="#060606"
         opacity="1"
         stroke="none"
         d="m 981.46491,175.53528 c 9.88201,28.49196 -4.06391,58.24376 -31.37757,66.30583 -15.73401,4.64415 -30.31073,1.86584 -42.50189,-9.91478 -0.66956,-0.64703 -1.39398,-1.23723 -3.08093,-2.72574 0,17.25249 0,33.39508 0,49.89642 -7.15741,0 -13.56714,0 -20.44055,0 0,-44.03907 0,-88.21376 0,-132.5978 6.54431,0 12.99243,0 20.01782,0 0,3.78082 0,7.51225 0,11.5717 1.02673,-0.26371 1.59918,-0.23043 1.81488,-0.49169 17.77209,-21.52792 58.27411,-18.83004 74.06958,14.38008 0.49926,1.04976 0.92804,2.13302 1.49866,3.57598 m -48.77131,48.49037 c 0.99689,-0.002 1.99665,0.0447 2.9903,-0.0129 12.4787,-0.72331 21.77759,-6.66209 26.13891,-18.3027 4.57251,-12.20429 3.05817,-24.20581 -6.52966,-33.72379 -9.14526,-9.07872 -20.52649,-10.44772 -32.40985,-6.32687 -12.88159,4.46696 -20.30969,18.21867 -18.35791,33.00427 1.85022,14.01628 12.40869,23.80035 28.16821,25.362 z"
         id="path2" /><path
         fill="#060606"
         opacity="1"
         stroke="none"
         d="m 132.5936,112.45558 c 0.86497,-1.70487 1.6703,-3.9844 2.60411,-4.03831 5.78676,-0.33404 11.6024,-0.16802 18.06257,-0.16802 0,16.64279 0,32.84696 0,50.72717 12.56093,-13.54884 26.92801,-17.31686 43.09681,-13.96066 11.92038,2.47435 20.96836,9.52431 28.18284,19.23873 13.98352,18.82898 11.30844,48.74978 -5.36569,65.71058 -14.23851,14.48331 -43.73744,21.86081 -65.52267,-0.52318 -0.2307,4.19932 -0.42191,7.68001 -0.63299,11.52225 -6.53842,0 -13.11558,0 -20.42524,0 0,-42.58955 0,-85.32199 2.6e-4,-128.50856 m 37.46805,53.88193 c -14.91175,7.78764 -21.06283,25.30208 -14.18969,40.40335 6.94536,15.25993 25.22829,21.82968 40.46901,14.54207 14.85788,-7.10454 21.11296,-25.62807 13.81026,-40.8969 -7.01787,-14.67331 -21.78294,-20.0784 -40.08958,-14.04852 z"
         id="path3" /><path
         fill="#070707"
         opacity="1"
         stroke="none"
         d="m 761.79364,213.24889 c -11.11316,-28.32695 3.43488,-59.69519 31.69562,-67.6413 15.18011,-4.26819 29.3631,-1.53694 41.24066,9.67276 0.9046,0.85377 1.9118,1.59889 3.80316,3.16728 0,-4.55047 0,-8.07171 0,-12.1564 6.43317,0 12.20703,0.01 17.98096,-0.004 3.62152,-0.008 2.68927,2.70336 2.69336,4.66858 0.043,20.82897 0.0266,41.65804 0.0266,62.48709 0,8.99488 0,17.98975 0,27.43535 -6.6889,0 -13.25104,0 -20.44849,0 0,-3.35316 0,-6.89743 0,-12.17589 -15.27215,15.32682 -31.98535,18.87209 -50.6109,11.52751 -12.5614,-4.95333 -20.89331,-14.40513 -26.38098,-26.98136 m 69.20776,1.214 c 10.33759,-12.76506 10.06171,-30.68498 -0.6463,-41.98157 -9.86346,-10.40562 -28.13122,-11.88661 -39.78052,-3.22513 -13.5863,10.10167 -15.7937,31.25232 -4.89788,44.55043 10.8125,13.19635 33.63549,13.68279 45.3247,0.65627 z"
         id="path4" /><path
         fill="#080808"
         opacity="1"
         stroke="none"
         d="m 406.81677,144.15402 c 20.38223,-1.44626 36.51782,5.89543 47.34427,22.58963 10.48895,16.17375 10.85812,33.57591 2.03812,50.79144 -10.57672,20.6444 -35.85562,31.03197 -58.28836,24.28348 -23.28336,-7.00436 -37.91559,-28.75314 -35.94843,-52.33038 1.91611,-22.96527 20.51135,-43.00218 44.8544,-45.33417 m -17.31531,29.88721 c -9.32354,12.12115 -9.45736,27.95761 -0.3309,39.16275 8.36881,10.27492 23.79575,13.66165 35.72489,7.64854 11.80758,-5.95186 17.03503,-15.86293 16.41095,-28.86413 -0.5893,-12.27751 -6.61859,-21.38135 -17.98331,-25.80786 -12.37314,-4.81929 -23.84143,-2.43909 -33.82163,7.8607 z"
         id="path5" /><path
         fill="#080808"
         opacity="1"
         stroke="none"
         d="m 324.94913,235.94191 c -29.18344,16.81314 -64.09336,4.7346 -74.73757,-25.55202 -12.44835,-35.42001 17.34716,-71.3585 54.62847,-65.89132 34.92443,5.12155 53.99572,42.64579 36.67883,73.37417 -3.85446,6.83963 -10.7666,11.95612 -16.56973,18.06917 m 0.005,-54.10396 c -5.56799,-11.86371 -14.8407,-17.95299 -28.00983,-17.80261 -12.3254,0.14073 -22.47113,7.29925 -26.80429,18.75864 -4.41125,11.66592 -1.24344,25.61759 7.59656,33.45649 9.05231,8.02718 22.78641,9.67896 33.52268,4.36582 10.69632,-5.29337 20.07885,-19.36246 13.69488,-38.77834 z"
         id="path6" /><path
         fill="#090909"
         opacity="1"
         stroke="none"
         d="m 573.83044,163.18161 c -4.77484,1.57454 -8.34893,3.78596 -8.43036,9.04242 -0.0822,5.30603 3.7287,7.69841 7.84449,9.20077 7.32263,2.67295 14.9331,4.56075 22.24341,7.26323 15.02777,5.55548 21.32397,14.09618 20.77484,27.44674 -0.50678,12.32092 -8.97583,22.11215 -23.3017,25.8549 -12.61432,3.29559 -25.11768,2.58929 -36.87225,-3.6469 -6.93817,-3.68092 -12.17664,-9.0607 -15.4292,-16.8528 5.66913,-3.31938 11.20147,-6.5587 17.20087,-10.07145 3.26763,6.53039 7.8543,11.75683 15.11828,12.61766 5.138,0.6089 10.54718,0.0887 15.68134,-0.8084 3.85717,-0.67401 6.18115,-3.91871 6.52093,-7.94061 0.33319,-3.94423 -1.78101,-6.93199 -5.26819,-8.2614 -8.20422,-3.12768 -16.56854,-5.83475 -24.86297,-8.72677 -1.56647,-0.54618 -3.15631,-1.05965 -4.65503,-1.76029 -9.43402,-4.41051 -15.66706,-11.28276 -16.00428,-22.15294 -0.31579,-10.17874 3.54133,-18.42123 12.2378,-24.16714 18.25598,-12.06201 45.51886,-6.50286 56.39361,11.55093 0.25147,0.41751 0.36359,0.91899 0.78943,2.03008 -5.48993,3.09192 -11.03045,6.21235 -16.88757,9.51107 -5.25739,-9.18605 -13.09955,-11.79071 -23.09345,-10.1291 z"
         id="path7" /><path
         fill="#090909"
         opacity="1"
         stroke="none"
         d="m 487.29916,181.00162 c 0,-5.13462 0,-9.76975 0,-14.92794 -4.95257,0 -9.41238,0.20343 -13.8323,-0.12692 -1.28644,-0.0961 -3.45407,-1.65338 -3.51795,-2.64984 -0.3482,-5.43207 -0.16568,-10.89818 -0.16568,-16.7538 5.90418,0 11.33112,0 17.21689,0 0,-6.95283 0,-13.52544 0,-20.55775 6.9108,-2.06852 13.53125,-4.05013 20.74725,-6.21 0,8.91749 0,17.30907 0,26.30028 8.00617,0 15.55457,0 23.84992,0 0,6.33473 0.14331,12.09377 -0.16718,17.82825 -0.0426,0.7865 -2.32342,2.03155 -3.6007,2.07376 -6.44586,0.21294 -12.90247,0.0978 -19.83033,0.0978 0,12.0152 -0.006,23.47678 0.003,34.93837 0.003,3.99472 -0.0703,7.99399 0.092,11.98302 0.23129,5.68452 2.56155,8.58331 8.22449,9.50735 3.74017,0.61031 7.61297,0.58533 11.42218,0.53368 2.64099,-0.0358 4.05267,0.511 3.92926,3.55043 -0.18866,4.64761 -0.0495,9.30855 -0.0495,14.49321 -10.74146,1.71762 -21.30899,2.33053 -31.29566,-2.44988 -9.77374,-4.67843 -12.49179,-13.84654 -12.8692,-23.67604 -0.42761,-11.1371 -0.13571,-22.30183 -0.15665,-33.95402 z"
         id="path8" /><path
         fill="#070707"
         opacity="1"
         stroke="none"
         d="m 627.15491,166.03741 c -4.78052,0.68636 -6.49994,-0.90857 -6.08753,-5.45025 0.4043,-4.45146 0.0881,-8.96836 0.0881,-14.08093 5.81543,0 11.39428,0 17.56408,0 0,-6.20388 -0.20044,-11.80942 0.13721,-17.38234 0.0873,-1.44021 1.58441,-3.5485 2.91162,-4.02828 5.44061,-1.9668 11.06574,-3.42297 17.37787,-5.2904 0,8.94618 0,17.46969 0,26.55323 8.25153,0 15.8291,0 23.62012,0 0,6.67055 0,12.76125 0,19.42907 -7.59296,0 -15.00391,0 -22.7522,0 -0.27051,1.75178 -0.62628,2.99514 -0.62952,4.23942 -0.0357,13.66182 -0.0821,27.32427 0.0121,40.98557 0.0577,8.37414 2.87695,11.39383 11.26666,12.0328 3.79187,0.28879 7.6239,0.049 11.8841,0.049 0,6.02237 0,11.74431 0,18.05227 -10.17957,1.5784 -20.58899,2.24798 -30.45881,-2.32339 -10.05401,-4.65666 -12.92852,-13.94522 -13.21276,-23.98387 -0.40546,-14.31732 -0.13147,-28.65369 -0.16993,-42.98186 -0.005,-1.77579 -0.14526,-3.55122 -0.24438,-5.82001 -3.9104,0 -7.37073,0 -11.3067,0 z"
         id="path9" /><path
         fill="#050505"
         opacity="1"
         stroke="none"
         d="m 702.52393,154.16248 c 0,-2.76961 0,-5.06148 0,-7.57453 7.091,0 13.65509,0 20.69574,0 0,4.36261 0,8.44321 0,12.52379 7.47619,-9.51799 16.61706,-14.6415 28.85986,-14.18381 0,7.42128 0,14.48871 0,21.48442 -3.95374,0.5942 -7.65674,0.74977 -11.11817,1.7452 -10.89862,3.13414 -17.20562,10.77807 -17.52038,22.15239 -0.42853,15.48661 -0.20862,30.99115 -0.26556,46.488 -0.005,1.31282 -6.2e-4,2.62566 -6.2e-4,4.23075 -6.91711,0 -13.49493,0 -20.65087,0 0,-28.85717 0,-57.62282 0,-86.86621 z"
         id="path10" /><path
         fill="#fafafa"
         opacity="1"
         stroke="none"
         d="m 932.24524,223.98022 c -15.31116,-1.51622 -25.86963,-11.30029 -27.71985,-25.31657 -1.95178,-14.7856 5.47632,-28.53731 18.35791,-33.00427 11.88336,-4.12085 23.26459,-2.75185 32.40985,6.32687 9.58783,9.51798 11.10217,21.5195 6.52966,33.72379 -4.36132,11.64061 -13.66021,17.57939 -26.13891,18.3027 -0.99365,0.0576 -1.99341,0.011 -3.43866,-0.0325 z"
         id="path11" /><path
         fill="#fafafa"
         opacity="1"
         stroke="none"
         d="m 170.40053,166.14798 c 17.96776,-5.84035 32.73283,-0.43526 39.7507,14.23805 7.3027,15.26883 1.04762,33.79236 -13.81026,40.8969 -15.24072,7.28761 -33.52365,0.71786 -40.46901,-14.54207 -6.87314,-15.10127 -0.72206,-32.61571 14.52857,-40.59288 z"
         id="path12" /><path
         fill="#fafafa"
         opacity="1"
         stroke="none"
         d="m 830.75549,214.72551 c -11.4433,12.7639 -34.26629,12.27746 -45.07879,-0.91889 -10.89582,-13.29811 -8.68842,-34.44876 4.89788,-44.55043 11.6493,-8.66148 29.91706,-7.18049 39.78052,3.22513 10.70801,11.29659 10.98389,29.21651 0.40039,42.24419 z"
         id="path13" /><path
         fill="#fafafa"
         opacity="1"
         stroke="none"
         d="m 389.72919,173.76021 c 9.75247,-10.01877 21.22076,-12.39897 33.5939,-7.57968 11.36472,4.42651 17.39401,13.53035 17.98331,25.80786 0.62408,13.0012 -4.60337,22.91227 -16.41095,28.86413 -11.92914,6.01311 -27.35608,2.62638 -35.72489,-7.64854 -9.12646,-11.20514 -8.99264,-27.0416 0.55863,-39.44377 z"
         id="path14" /><path
         fill="#fafafa"
         opacity="1"
         stroke="none"
         d="m 325.10345,182.20293 c 6.23462,19.0509 -3.14791,33.11999 -13.84423,38.41336 -10.73627,5.31314 -24.47037,3.66136 -33.52268,-4.36582 -8.84,-7.8389 -12.00781,-21.79057 -7.59656,-33.45649 4.33316,-11.45939 14.47889,-18.61791 26.80429,-18.75864 13.16913,-0.15038 22.44184,5.9389 28.15918,18.16759 z"
         id="path15" /></g><g
       style="fill:none"
       id="g2"
       transform="matrix(0.66795714,0,0,0.66795714,5.2933175,3.6914203)"><path
         fill="#38bdf8"
         fill-rule="evenodd"
         d="M 27,0 C 19.8,0 15.3,3.6 13.5,10.8 16.2,7.2 19.35,5.85 22.95,6.75 25.004,7.263 26.472,8.754 28.097,10.403 30.744,13.09 33.808,16.2 40.5,16.2 47.7,16.2 52.2,12.6 54,5.4 51.3,9 48.15,10.35 44.55,9.45 42.496,8.937 41.028,7.446 39.403,5.797 36.756,3.11 33.692,0 27,0 Z M 13.5,16.2 C 6.3,16.2 1.8,19.8 0,27 c 2.7,-3.6 5.85,-4.95 9.45,-4.05 2.054,0.514 3.522,2.004 5.147,3.653 2.647,2.687 5.711,5.797 12.403,5.797 7.2,0 11.7,-3.6 13.5,-10.8 -2.7,3.6 -5.85,4.95 -9.45,4.05 C 28.996,25.137 27.528,23.646 25.903,21.997 23.256,19.31 20.192,16.2 13.5,16.2 Z"
         clip-rule="evenodd"
         id="path1-8"
         clip-path="url(#clipPath2)" /></g></g></svg>
